<svg width="1760" height="1760" xmlns="http://www.w3.org/2000/svg" xmlns:xlink="http://www.w3.org/1999/xlink" xml:space="preserve" overflow="hidden"><defs><clipPath id="clip0"><rect x="1320" y="358" width="1760" height="1760"/></clipPath></defs><g clip-path="url(#clip0)" transform="translate(-1320 -358)"><rect x="1320" y="358" width="1760" height="1760" fill="#4CAF50"/><rect x="1760" y="688" width="880" height="1100" fill="#FFFFFF"/><rect x="1870" y="798" width="660" height="55" fill="#4CAF50"/><rect x="1870" y="908" width="660" height="27.0002" fill="#666666"/><rect x="1870" y="990" width="516" height="27.9998" fill="#666666"/><rect x="1870" y="1073" width="619" height="27.0001" fill="#666666"/><rect x="1870" y="1155" width="413" height="27.9999" fill="#666666"/><rect x="1870" y="1238" width="584" height="27.0001" fill="#666666"/><rect x="1870" y="1320" width="481" height="27.9999" fill="#666666"/><rect x="1870" y="1403" width="550" height="27.0001" fill="#666666"/><rect x="1870" y="1485" width="447" height="27.9999" fill="#666666"/><rect x="1870" y="1568" width="653" height="27.0001" fill="#666666"/><text fill="#FFFFFF" font-family="Arial,Arial_MSFontService,sans-serif" font-weight="700" font-size="83" transform="matrix(1 0 0 1 1822.49 1902)">B</text><text fill="#FFFFFF" font-family="Arial,Arial_MSFontService,sans-serif" font-weight="700" font-size="83" transform="matrix(1 0 0 1 1882.07 1902)">ible Reading Plan</text></g></svg>